<?xml version="1.0" encoding="UTF-8" standalone="no"?>
<svg
   viewBox="0 0 500 200"
   role="img"
   aria-labelledby="title desc"
   version="1.1"
   id="svg3"
   sodipodi:docname="logo-horizontal-dark.svg"
   width="500"
   height="200"
   inkscape:version="1.4.3 (0d15f75042, 2025-12-25)"
   xmlns:inkscape="http://www.inkscape.org/namespaces/inkscape"
   xmlns:sodipodi="http://sodipodi.sourceforge.net/DTD/sodipodi-0.dtd"
   xmlns:xlink="http://www.w3.org/1999/xlink"
   xmlns="http://www.w3.org/2000/svg"
   xmlns:svg="http://www.w3.org/2000/svg"
   xmlns:rdf="http://www.w3.org/1999/02/22-rdf-syntax-ns#"
   xmlns:cc="http://creativecommons.org/ns#"
   xmlns:dc="http://purl.org/dc/elements/1.1/">
  <sodipodi:namedview
     id="namedview3"
     pagecolor="#ffffff"
     bordercolor="#000000"
     borderopacity="0.25"
     inkscape:showpageshadow="2"
     inkscape:pageopacity="0.0"
     inkscape:pagecheckerboard="0"
     inkscape:deskcolor="#d1d1d1"
     inkscape:zoom="1.6770833"
     inkscape:cx="378.63355"
     inkscape:cy="122.53416"
     inkscape:window-width="2560"
     inkscape:window-height="1371"
     inkscape:window-x="0"
     inkscape:window-y="787"
     inkscape:window-maximized="1"
     inkscape:current-layer="svg3" />
  <title
     id="title">NSW Mesh horizontal logo</title>
  <desc
     id="desc">NSW Mesh horizontal logo with node mark on the left.</desc>
  <defs
     id="defs2">
    <linearGradient
       id="meshTextGradient"
       x1="260"
       x2="610"
       y1="166"
       y2="166"
       gradientUnits="userSpaceOnUse"
       gradientTransform="matrix(1.093311,0,0,1.093311,-19.589456,-47.00391)">
      <stop
         offset="0"
         stop-color="#FF6A00"
         id="stop1" />
      <stop
         offset="1"
         stop-color="#E11D48"
         id="stop2" />
    </linearGradient>
    <linearGradient
       inkscape:collect="always"
       xlink:href="#linearGradient420"
       id="linearGradient421"
       x1="67.599586"
       y1="33.58173"
       x2="67.744965"
       y2="123.13301"
       gradientUnits="userSpaceOnUse" />
    <linearGradient
       id="linearGradient420"
       inkscape:collect="always">
      <stop
         style="stop-color:#000000;stop-opacity:1;"
         offset="0"
         id="stop420" />
      <stop
         style="stop-color:#000000;stop-opacity:1"
         offset="1"
         id="stop421" />
    </linearGradient>
    <linearGradient
       inkscape:collect="always"
       xlink:href="#linearGradient427"
       id="linearGradient431"
       x1="67.420761"
       y1="37.532967"
       x2="67.440788"
       y2="118.08229"
       gradientUnits="userSpaceOnUse" />
    <linearGradient
       id="linearGradient427"
       inkscape:collect="always">
      <stop
         style="stop-color:#ff6a00;stop-opacity:1;"
         offset="0"
         id="stop427" />
      <stop
         style="stop-color:#e11d48;stop-opacity:1;"
         offset="1"
         id="stop428" />
    </linearGradient>
    <linearGradient
       inkscape:collect="always"
       xlink:href="#linearGradient427"
       id="linearGradient432"
       gradientUnits="userSpaceOnUse"
       x1="67.770943"
       y1="20.80196"
       x2="67.770943"
       y2="136.13084" />
    <linearGradient
       inkscape:collect="always"
       xlink:href="#linearGradient427"
       id="linearGradient525"
       x1="67.770935"
       y1="22.840298"
       x2="67.770935"
       y2="133.07452"
       gradientUnits="userSpaceOnUse" />
    <linearGradient
       inkscape:collect="always"
       xlink:href="#linearGradient427"
       id="linearGradient1"
       gradientUnits="userSpaceOnUse"
       x1="67.770943"
       y1="20.80196"
       x2="67.770943"
       y2="136.13084" />
    <linearGradient
       inkscape:collect="always"
       xlink:href="#linearGradient427"
       id="linearGradient2"
       gradientUnits="userSpaceOnUse"
       x1="67.770943"
       y1="20.80196"
       x2="67.770943"
       y2="136.13084" />
    <linearGradient
       inkscape:collect="always"
       xlink:href="#linearGradient427"
       id="linearGradient3"
       gradientUnits="userSpaceOnUse"
       x1="67.770943"
       y1="20.80196"
       x2="67.770943"
       y2="136.13084" />
    <linearGradient
       inkscape:collect="always"
       xlink:href="#linearGradient427"
       id="linearGradient4"
       gradientUnits="userSpaceOnUse"
       x1="67.770943"
       y1="20.80196"
       x2="67.770943"
       y2="136.13084" />
    <linearGradient
       inkscape:collect="always"
       xlink:href="#linearGradient427"
       id="linearGradient5"
       gradientUnits="userSpaceOnUse"
       x1="67.770943"
       y1="20.80196"
       x2="67.770943"
       y2="136.13084" />
    <linearGradient
       inkscape:collect="always"
       xlink:href="#linearGradient427"
       id="linearGradient6"
       gradientUnits="userSpaceOnUse"
       x1="67.770943"
       y1="20.80196"
       x2="67.770943"
       y2="136.13084" />
    <linearGradient
       inkscape:collect="always"
       xlink:href="#linearGradient427"
       id="linearGradient7"
       gradientUnits="userSpaceOnUse"
       x1="67.770943"
       y1="20.80196"
       x2="67.770943"
       y2="136.13084" />
    <linearGradient
       inkscape:collect="always"
       xlink:href="#linearGradient427"
       id="linearGradient8"
       gradientUnits="userSpaceOnUse"
       x1="67.770943"
       y1="20.80196"
       x2="67.770943"
       y2="136.13084" />
    <linearGradient
       inkscape:collect="always"
       xlink:href="#linearGradient427"
       id="linearGradient9"
       gradientUnits="userSpaceOnUse"
       x1="67.770943"
       y1="20.80196"
       x2="67.770943"
       y2="136.13084" />
    <linearGradient
       inkscape:collect="always"
       xlink:href="#linearGradient427"
       id="linearGradient10"
       gradientUnits="userSpaceOnUse"
       x1="67.770943"
       y1="20.80196"
       x2="67.770943"
       y2="136.13084" />
    <linearGradient
       inkscape:collect="always"
       xlink:href="#linearGradient427"
       id="linearGradient11"
       gradientUnits="userSpaceOnUse"
       x1="67.770943"
       y1="20.80196"
       x2="67.770943"
       y2="136.13084" />
    <linearGradient
       inkscape:collect="always"
       xlink:href="#linearGradient427"
       id="linearGradient12"
       gradientUnits="userSpaceOnUse"
       x1="67.770943"
       y1="20.80196"
       x2="67.770943"
       y2="136.13084" />
    <linearGradient
       inkscape:collect="always"
       xlink:href="#linearGradient427"
       id="linearGradient13"
       gradientUnits="userSpaceOnUse"
       x1="67.770943"
       y1="20.80196"
       x2="67.770943"
       y2="136.13084" />
    <linearGradient
       inkscape:collect="always"
       xlink:href="#linearGradient427"
       id="linearGradient14"
       gradientUnits="userSpaceOnUse"
       x1="67.770943"
       y1="20.80196"
       x2="67.770943"
       y2="136.13084" />
    <linearGradient
       inkscape:collect="always"
       xlink:href="#linearGradient427"
       id="linearGradient15"
       gradientUnits="userSpaceOnUse"
       x1="67.770943"
       y1="20.80196"
       x2="67.770943"
       y2="136.13084" />
    <linearGradient
       inkscape:collect="always"
       xlink:href="#linearGradient427"
       id="linearGradient16"
       gradientUnits="userSpaceOnUse"
       x1="67.770943"
       y1="20.80196"
       x2="67.770943"
       y2="136.13084" />
    <linearGradient
       inkscape:collect="always"
       xlink:href="#linearGradient427"
       id="linearGradient17"
       gradientUnits="userSpaceOnUse"
       x1="67.770943"
       y1="20.80196"
       x2="67.770943"
       y2="136.13084" />
    <linearGradient
       inkscape:collect="always"
       xlink:href="#linearGradient427"
       id="linearGradient18"
       gradientUnits="userSpaceOnUse"
       x1="67.770943"
       y1="20.80196"
       x2="67.770943"
       y2="136.13084" />
    <linearGradient
       inkscape:collect="always"
       xlink:href="#linearGradient427"
       id="linearGradient19"
       gradientUnits="userSpaceOnUse"
       x1="67.770943"
       y1="20.80196"
       x2="67.770943"
       y2="136.13084" />
    <linearGradient
       inkscape:collect="always"
       xlink:href="#linearGradient427"
       id="linearGradient20"
       gradientUnits="userSpaceOnUse"
       x1="67.770943"
       y1="20.80196"
       x2="67.770943"
       y2="136.13084" />
    <linearGradient
       inkscape:collect="always"
       xlink:href="#linearGradient427"
       id="linearGradient21"
       gradientUnits="userSpaceOnUse"
       x1="67.770943"
       y1="20.80196"
       x2="67.770943"
       y2="136.13084" />
    <linearGradient
       inkscape:collect="always"
       xlink:href="#linearGradient427"
       id="linearGradient22"
       gradientUnits="userSpaceOnUse"
       x1="67.770943"
       y1="20.80196"
       x2="67.770943"
       y2="136.13084" />
    <linearGradient
       inkscape:collect="always"
       xlink:href="#linearGradient427"
       id="linearGradient23"
       gradientUnits="userSpaceOnUse"
       x1="67.770943"
       y1="20.80196"
       x2="67.770943"
       y2="136.13084" />
    <linearGradient
       inkscape:collect="always"
       xlink:href="#linearGradient427"
       id="linearGradient24"
       gradientUnits="userSpaceOnUse"
       x1="67.770935"
       y1="22.840298"
       x2="67.770935"
       y2="133.07452" />
    <linearGradient
       inkscape:collect="always"
       xlink:href="#linearGradient427"
       id="linearGradient25"
       gradientUnits="userSpaceOnUse"
       x1="67.770935"
       y1="22.840298"
       x2="67.770935"
       y2="133.07452" />
    <linearGradient
       inkscape:collect="always"
       xlink:href="#linearGradient427"
       id="linearGradient26"
       gradientUnits="userSpaceOnUse"
       x1="67.770935"
       y1="22.840298"
       x2="67.770935"
       y2="133.07452" />
    <linearGradient
       inkscape:collect="always"
       xlink:href="#linearGradient427"
       id="linearGradient27"
       gradientUnits="userSpaceOnUse"
       x1="67.770935"
       y1="22.840298"
       x2="67.770935"
       y2="133.07452" />
    <linearGradient
       inkscape:collect="always"
       xlink:href="#linearGradient427"
       id="linearGradient28"
       gradientUnits="userSpaceOnUse"
       x1="67.770935"
       y1="22.840298"
       x2="67.770935"
       y2="133.07452" />
    <linearGradient
       inkscape:collect="always"
       xlink:href="#linearGradient427"
       id="linearGradient29"
       gradientUnits="userSpaceOnUse"
       x1="67.770935"
       y1="22.840298"
       x2="67.770935"
       y2="133.07452" />
    <linearGradient
       inkscape:collect="always"
       xlink:href="#linearGradient427"
       id="linearGradient30"
       gradientUnits="userSpaceOnUse"
       x1="67.770935"
       y1="22.840298"
       x2="67.770935"
       y2="133.07452" />
    <linearGradient
       inkscape:collect="always"
       xlink:href="#linearGradient427"
       id="linearGradient31"
       gradientUnits="userSpaceOnUse"
       x1="67.770935"
       y1="22.840298"
       x2="67.770935"
       y2="133.07452" />
    <linearGradient
       inkscape:collect="always"
       xlink:href="#linearGradient427"
       id="linearGradient32"
       gradientUnits="userSpaceOnUse"
       x1="67.770935"
       y1="22.840298"
       x2="67.770935"
       y2="133.07452" />
    <linearGradient
       inkscape:collect="always"
       xlink:href="#linearGradient427"
       id="linearGradient33"
       gradientUnits="userSpaceOnUse"
       x1="67.770935"
       y1="22.840298"
       x2="67.770935"
       y2="133.07452" />
    <linearGradient
       inkscape:collect="always"
       xlink:href="#linearGradient427"
       id="linearGradient34"
       gradientUnits="userSpaceOnUse"
       x1="67.770935"
       y1="22.840298"
       x2="67.770935"
       y2="133.07452" />
    <linearGradient
       inkscape:collect="always"
       xlink:href="#linearGradient427"
       id="linearGradient35"
       gradientUnits="userSpaceOnUse"
       x1="67.770935"
       y1="22.840298"
       x2="67.770935"
       y2="133.07452" />
    <linearGradient
       inkscape:collect="always"
       xlink:href="#linearGradient427"
       id="linearGradient36"
       gradientUnits="userSpaceOnUse"
       x1="67.770935"
       y1="22.840298"
       x2="67.770935"
       y2="133.07452" />
    <linearGradient
       inkscape:collect="always"
       xlink:href="#linearGradient427"
       id="linearGradient37"
       gradientUnits="userSpaceOnUse"
       x1="67.770935"
       y1="22.840298"
       x2="67.770935"
       y2="133.07452" />
    <linearGradient
       inkscape:collect="always"
       xlink:href="#linearGradient427"
       id="linearGradient38"
       gradientUnits="userSpaceOnUse"
       x1="67.770935"
       y1="22.840298"
       x2="67.770935"
       y2="133.07452" />
    <linearGradient
       inkscape:collect="always"
       xlink:href="#linearGradient427"
       id="linearGradient39"
       gradientUnits="userSpaceOnUse"
       x1="67.770935"
       y1="22.840298"
       x2="67.770935"
       y2="133.07452" />
    <linearGradient
       inkscape:collect="always"
       xlink:href="#linearGradient427"
       id="linearGradient40"
       gradientUnits="userSpaceOnUse"
       x1="67.770935"
       y1="22.840298"
       x2="67.770935"
       y2="133.07452" />
    <linearGradient
       inkscape:collect="always"
       xlink:href="#linearGradient427"
       id="linearGradient41"
       gradientUnits="userSpaceOnUse"
       x1="67.770935"
       y1="22.840298"
       x2="67.770935"
       y2="133.07452" />
    <linearGradient
       inkscape:collect="always"
       xlink:href="#linearGradient427"
       id="linearGradient42"
       gradientUnits="userSpaceOnUse"
       x1="67.770935"
       y1="22.840298"
       x2="67.770935"
       y2="133.07452" />
    <linearGradient
       inkscape:collect="always"
       xlink:href="#linearGradient427"
       id="linearGradient43"
       gradientUnits="userSpaceOnUse"
       x1="67.770935"
       y1="22.840298"
       x2="67.770935"
       y2="133.07452" />
    <linearGradient
       inkscape:collect="always"
       xlink:href="#linearGradient427"
       id="linearGradient44"
       gradientUnits="userSpaceOnUse"
       x1="67.770935"
       y1="22.840298"
       x2="67.770935"
       y2="133.07452" />
    <linearGradient
       inkscape:collect="always"
       xlink:href="#linearGradient427"
       id="linearGradient45"
       gradientUnits="userSpaceOnUse"
       x1="67.770935"
       y1="22.840298"
       x2="67.770935"
       y2="133.07452" />
    <linearGradient
       inkscape:collect="always"
       xlink:href="#linearGradient427"
       id="linearGradient46"
       gradientUnits="userSpaceOnUse"
       x1="67.770935"
       y1="22.840298"
       x2="67.770935"
       y2="133.07452" />
    <linearGradient
       inkscape:collect="always"
       xlink:href="#linearGradient427"
       id="linearGradient47"
       gradientUnits="userSpaceOnUse"
       x1="67.770935"
       y1="22.840298"
       x2="67.770935"
       y2="133.07452" />
    <linearGradient
       inkscape:collect="always"
       xlink:href="#linearGradient427"
       id="linearGradient48"
       gradientUnits="userSpaceOnUse"
       x1="67.770935"
       y1="22.840298"
       x2="67.770935"
       y2="133.07452" />
    <linearGradient
       inkscape:collect="always"
       xlink:href="#linearGradient427"
       id="linearGradient49"
       gradientUnits="userSpaceOnUse"
       x1="67.770935"
       y1="22.840298"
       x2="67.770935"
       y2="133.07452" />
    <linearGradient
       inkscape:collect="always"
       xlink:href="#linearGradient427"
       id="linearGradient50"
       gradientUnits="userSpaceOnUse"
       x1="67.770935"
       y1="22.840298"
       x2="67.770935"
       y2="133.07452" />
    <linearGradient
       inkscape:collect="always"
       xlink:href="#linearGradient427"
       id="linearGradient51"
       gradientUnits="userSpaceOnUse"
       x1="67.770935"
       y1="22.840298"
       x2="67.770935"
       y2="133.07452" />
    <linearGradient
       inkscape:collect="always"
       xlink:href="#linearGradient427"
       id="linearGradient52"
       gradientUnits="userSpaceOnUse"
       x1="67.770935"
       y1="22.840298"
       x2="67.770935"
       y2="133.07452" />
    <linearGradient
       inkscape:collect="always"
       xlink:href="#linearGradient427"
       id="linearGradient53"
       gradientUnits="userSpaceOnUse"
       x1="67.770935"
       y1="22.840298"
       x2="67.770935"
       y2="133.07452" />
    <linearGradient
       inkscape:collect="always"
       xlink:href="#linearGradient427"
       id="linearGradient54"
       gradientUnits="userSpaceOnUse"
       x1="67.770935"
       y1="22.840298"
       x2="67.770935"
       y2="133.07452" />
    <linearGradient
       inkscape:collect="always"
       xlink:href="#linearGradient427"
       id="linearGradient55"
       gradientUnits="userSpaceOnUse"
       x1="67.770935"
       y1="22.840298"
       x2="67.770935"
       y2="133.07452" />
    <linearGradient
       inkscape:collect="always"
       xlink:href="#linearGradient427"
       id="linearGradient56"
       gradientUnits="userSpaceOnUse"
       x1="67.770935"
       y1="22.840298"
       x2="67.770935"
       y2="133.07452" />
    <linearGradient
       inkscape:collect="always"
       xlink:href="#linearGradient427"
       id="linearGradient57"
       gradientUnits="userSpaceOnUse"
       x1="67.770935"
       y1="22.840298"
       x2="67.770935"
       y2="133.07452" />
    <linearGradient
       inkscape:collect="always"
       xlink:href="#linearGradient427"
       id="linearGradient58"
       gradientUnits="userSpaceOnUse"
       x1="67.770935"
       y1="22.840298"
       x2="67.770935"
       y2="133.07452" />
    <linearGradient
       inkscape:collect="always"
       xlink:href="#linearGradient427"
       id="linearGradient59"
       gradientUnits="userSpaceOnUse"
       x1="67.770935"
       y1="22.840298"
       x2="67.770935"
       y2="133.07452" />
    <linearGradient
       inkscape:collect="always"
       xlink:href="#linearGradient427"
       id="linearGradient60"
       gradientUnits="userSpaceOnUse"
       x1="67.770935"
       y1="22.840298"
       x2="67.770935"
       y2="133.07452" />
    <linearGradient
       inkscape:collect="always"
       xlink:href="#linearGradient427"
       id="linearGradient61"
       gradientUnits="userSpaceOnUse"
       x1="67.770935"
       y1="22.840298"
       x2="67.770935"
       y2="133.07452" />
    <linearGradient
       inkscape:collect="always"
       xlink:href="#linearGradient427"
       id="linearGradient62"
       gradientUnits="userSpaceOnUse"
       x1="67.770935"
       y1="22.840298"
       x2="67.770935"
       y2="133.07452" />
    <linearGradient
       inkscape:collect="always"
       xlink:href="#linearGradient427"
       id="linearGradient63"
       gradientUnits="userSpaceOnUse"
       x1="67.770935"
       y1="22.840298"
       x2="67.770935"
       y2="133.07452" />
    <linearGradient
       inkscape:collect="always"
       xlink:href="#linearGradient427"
       id="linearGradient64"
       gradientUnits="userSpaceOnUse"
       x1="67.770935"
       y1="22.840298"
       x2="67.770935"
       y2="133.07452" />
    <linearGradient
       inkscape:collect="always"
       xlink:href="#linearGradient427"
       id="linearGradient65"
       gradientUnits="userSpaceOnUse"
       x1="67.770935"
       y1="22.840298"
       x2="67.770935"
       y2="133.07452" />
  </defs>
  <g
     id="g418"
     style="fill-opacity:1;stroke:url(#linearGradient421)"
     transform="matrix(1.8872345,0,0,1.8872345,-1.1649059,-49.676019)">
    <g
       id="g427"
       style="fill:url(#linearGradient431);stroke:none;stroke-width:0;stroke-dasharray:none">
      <circle
         style="fill:url(#linearGradient1);fill-opacity:1;stroke:none;stroke-width:0;stroke-dasharray:none"
         id="path1"
         cx="67.515266"
         cy="117.6756"
         r="5.4283195" />
      <circle
         style="fill:url(#linearGradient2);fill-opacity:1;stroke:none;stroke-width:0;stroke-dasharray:none"
         id="path1-3-1"
         cx="30.270079"
         cy="107.88311"
         r="3.7623167" />
      <circle
         style="fill:url(#linearGradient3);fill-opacity:1;stroke:none;stroke-width:0;stroke-dasharray:none"
         id="path1-3-1-0"
         cx="45.691509"
         cy="102.606"
         r="4.4891939" />
      <circle
         style="fill:url(#linearGradient4);fill-opacity:1;stroke:none;stroke-width:0;stroke-dasharray:none"
         id="path1-3-1-0-4"
         cx="67.774033"
         cy="82.407539"
         r="4.4891939" />
      <circle
         style="fill:url(#linearGradient5);fill-opacity:1;stroke:none;stroke-width:0;stroke-dasharray:none"
         id="path1-3-1-6"
         cx="15.05508"
         cy="88.001587"
         r="3.7623167" />
      <circle
         style="fill:url(#linearGradient6);fill-opacity:1;stroke:none;stroke-width:0;stroke-dasharray:none"
         id="path1-3-1-7"
         cx="34.529579"
         cy="83.175117"
         r="3.7623167" />
      <circle
         style="fill:url(#linearGradient7);fill-opacity:1;stroke:none;stroke-width:0;stroke-dasharray:none"
         id="path1-3-1-3"
         cx="50.660435"
         cy="77.525833"
         r="3.7623167" />
      <circle
         style="fill:url(#linearGradient8);fill-opacity:1;stroke:none;stroke-width:0;stroke-dasharray:none"
         id="path1-3-1-3-1"
         cx="67.576332"
         cy="62.430042"
         r="3.7623167" />
      <circle
         style="fill:url(#linearGradient9);fill-opacity:1;stroke:none;stroke-width:0;stroke-dasharray:none"
         id="path1-3-1-3-1-6"
         cx="67.852547"
         cy="37.591194"
         r="3.7623167" />
      <circle
         style="fill:url(#linearGradient10);fill-opacity:1;stroke:none;stroke-width:0;stroke-dasharray:none"
         id="path1-3-1-2"
         cx="13.650755"
         cy="68.582329"
         r="3.5442536" />
      <circle
         style="fill:url(#linearGradient11);fill-opacity:1;stroke:none;stroke-width:0;stroke-dasharray:none"
         id="path1-3-1-2-6"
         cx="34.378387"
         cy="64.665916"
         r="3.5442536" />
      <circle
         style="fill:url(#linearGradient12);fill-opacity:1;stroke:none;stroke-width:0;stroke-dasharray:none"
         id="path1-3-1-2-6-9"
         cx="40.042213"
         cy="50.503437"
         r="2.9627519" />
      <circle
         style="fill:url(#linearGradient13);fill-opacity:1;stroke:none;stroke-width:0;stroke-dasharray:none"
         id="path1-3-1-2-6-9-2"
         cx="58.281021"
         cy="51.422215"
         r="2.9627519" />
      <circle
         style="fill:url(#linearGradient14);fill-opacity:1;stroke:none;stroke-width:0;stroke-dasharray:none"
         id="path1-3-1-2-1"
         cx="53.187065"
         cy="64.8927"
         r="3.5442536" />
      <circle
         style="fill:url(#linearGradient15);fill-opacity:1;stroke:none;stroke-width:0;stroke-dasharray:none"
         id="path1-3-1-1"
         cx="-105.2718"
         cy="107.95982"
         r="3.7623167"
         transform="scale(-1,1)" />
      <circle
         style="fill:url(#linearGradient16);fill-opacity:1;stroke:none;stroke-width:0;stroke-dasharray:none"
         id="path1-3-1-0-49"
         cx="-89.850365"
         cy="102.68272"
         r="4.4891939"
         transform="scale(-1,1)" />
      <circle
         style="fill:url(#linearGradient17);fill-opacity:1;stroke:none;stroke-width:0;stroke-dasharray:none"
         id="path1-3-1-6-2"
         cx="-120.48679"
         cy="88.078308"
         r="3.7623167"
         transform="scale(-1,1)" />
      <circle
         style="fill:url(#linearGradient18);fill-opacity:1;stroke:none;stroke-width:0;stroke-dasharray:none"
         id="path1-3-1-7-0"
         cx="-101.01229"
         cy="83.251839"
         r="3.7623167"
         transform="scale(-1,1)" />
      <circle
         style="fill:url(#linearGradient19);fill-opacity:1;stroke:none;stroke-width:0;stroke-dasharray:none"
         id="path1-3-1-3-6"
         cx="-84.881439"
         cy="77.602554"
         r="3.7623167"
         transform="scale(-1,1)" />
      <circle
         style="fill:url(#linearGradient20);fill-opacity:1;stroke:none;stroke-width:0;stroke-dasharray:none"
         id="path1-3-1-2-8"
         cx="-121.89113"
         cy="68.659042"
         r="3.5442536"
         transform="scale(-1,1)" />
      <circle
         style="fill:url(#linearGradient21);fill-opacity:1;stroke:none;stroke-width:0;stroke-dasharray:none"
         id="path1-3-1-2-6-92"
         cx="-101.16348"
         cy="64.742638"
         r="3.5442536"
         transform="scale(-1,1)" />
      <circle
         style="fill:url(#linearGradient22);fill-opacity:1;stroke:none;stroke-width:0;stroke-dasharray:none"
         id="path1-3-1-2-6-9-6"
         cx="-95.499657"
         cy="50.580158"
         r="2.9627519"
         transform="scale(-1,1)" />
      <circle
         style="fill:url(#linearGradient23);fill-opacity:1;stroke:none;stroke-width:0;stroke-dasharray:none"
         id="path1-3-1-2-6-9-2-6"
         cx="-77.260849"
         cy="51.498936"
         r="2.9627519"
         transform="scale(-1,1)" />
      <circle
         style="fill:url(#linearGradient432);fill-opacity:1;stroke:none;stroke-width:0;stroke-dasharray:none"
         id="path1-3-1-2-1-4"
         cx="-82.354805"
         cy="64.969421"
         r="3.5442536"
         transform="scale(-1,1)" />
    </g>
    <g
       id="g426"
       style="stroke:url(#linearGradient525)">
      <path
         style="fill:none;fill-opacity:1;stroke:url(#linearGradient24);stroke-width:1.065;stroke-dasharray:none;stroke-opacity:1"
         d="m 67.599588,118.13215 c 0,0 -41.577381,2.47138 -52.771291,-30.092769"
         id="path2" />
      <path
         style="fill:none;fill-opacity:1;stroke:url(#linearGradient25);stroke-width:1.065;stroke-dasharray:none;stroke-opacity:1"
         d="m 14.973672,87.74863 c 0,0 -2.471383,-11.339285 -1.59913,-19.625686"
         id="path3" />
      <path
         style="fill:none;fill-opacity:1;stroke:url(#linearGradient26);stroke-width:1.065;stroke-dasharray:none;stroke-opacity:1"
         d="M 67.45421,117.55064 45.647893,102.86769"
         id="path4" />
      <path
         style="fill:none;fill-opacity:1;stroke:url(#linearGradient27);stroke-width:1.065;stroke-dasharray:none;stroke-opacity:1"
         d="m 30.528847,107.81049 c 0,0 4.215887,-0.43613 15.409796,-5.5243"
         id="path5" />
      <path
         style="fill:none;fill-opacity:1;stroke:url(#linearGradient28);stroke-width:1.065;stroke-dasharray:none;stroke-opacity:1"
         d="m 50.881409,77.717723 c 0,0 9.740156,13.083791 16.718179,40.559797"
         id="path6" />
      <path
         style="fill:none;fill-opacity:1;stroke:url(#linearGradient29);stroke-width:1.065;stroke-dasharray:none;stroke-opacity:1"
         d="m 14.973672,88.184756 c 0,0 16.282052,11.920784 30.674221,14.101434"
         id="path7" />
      <path
         style="fill:none;fill-opacity:1;stroke:url(#linearGradient30);stroke-width:1.065;stroke-dasharray:none;stroke-opacity:1"
         d="m 34.308608,64.633932 c 0,0 1.453755,-6.97802 5.815017,-14.101419"
         id="path8" />
      <path
         style="fill:none;fill-opacity:1;stroke:url(#linearGradient31);stroke-width:1.065;stroke-dasharray:none;stroke-opacity:1"
         d="m 50.736034,77.426972 c 0,0 -5.524267,-5.233516 -16.572802,-12.938416"
         id="path9" />
      <path
         style="fill:none;fill-opacity:1;stroke:url(#linearGradient32);stroke-width:1.065;stroke-dasharray:none;stroke-opacity:1"
         d="M 39.97825,50.532513 53.207417,65.360811"
         id="path10" />
      <path
         style="fill:none;fill-opacity:1;stroke:url(#linearGradient33);stroke-width:1.065;stroke-dasharray:none;stroke-opacity:1"
         d="m 67.744964,82.369738 c 0,0 -8.867905,-11.048534 -14.828298,-17.590431"
         id="path11" />
      <path
         style="fill:none;fill-opacity:1;stroke:url(#linearGradient34);stroke-width:1.065;stroke-dasharray:none;stroke-opacity:1"
         d="M 67.45421,118.13215 67.744964,82.078988"
         id="path12" />
      <path
         style="fill:none;fill-opacity:1;stroke:url(#linearGradient35);stroke-width:1.065;stroke-dasharray:none;stroke-opacity:1"
         d="m 67.599588,62.453302 0.145376,19.771061"
         id="path13" />
      <path
         style="fill:none;fill-opacity:1;stroke:url(#linearGradient36);stroke-width:1.065;stroke-dasharray:none;stroke-opacity:1"
         d="m 58.150182,51.550141 c 0,0 3.634386,3.779763 9.594782,11.630038"
         id="path14" />
      <path
         style="fill:none;fill-opacity:1;stroke:url(#linearGradient37);stroke-width:1.065;stroke-dasharray:none;stroke-opacity:1"
         d="m 67.599588,37.448722 c 0,0 -5.088141,6.832648 -9.594781,14.392172"
         id="path15" />
      <path
         style="fill:none;fill-opacity:1;stroke:url(#linearGradient38);stroke-width:1.065;stroke-dasharray:none;stroke-opacity:1"
         d="m 53.062041,65.07006 c 0,0 1.599131,-7.123398 5.088141,-13.665295"
         id="path16" />
      <path
         style="fill:none;fill-opacity:1;stroke:url(#linearGradient39);stroke-width:1.065;stroke-dasharray:none;stroke-opacity:1"
         d="m 50.736034,77.281597 2.471383,-12.50229"
         id="path17" />
      <path
         style="fill:none;fill-opacity:1;stroke:url(#linearGradient40);stroke-width:1.065;stroke-dasharray:none;stroke-opacity:1"
         d="m 45.357142,102.43156 c 0,0 3.634388,-7.850283 5.233516,-24.568462"
         id="path18" />
      <path
         style="fill:none;fill-opacity:1;stroke:url(#linearGradient41);stroke-width:1.065;stroke-dasharray:none;stroke-opacity:1"
         d="m 34.308608,83.096615 c 0,0 5.088141,9.594781 11.630035,19.916455"
         id="path19" />
      <path
         style="fill:none;fill-opacity:1;stroke:url(#linearGradient42);stroke-width:1.065;stroke-dasharray:none;stroke-opacity:1"
         d="m 14.973672,87.894005 c 0,0 12.066162,-4.215886 19.480311,-4.361262"
         id="path20" />
      <path
         style="fill:none;fill-opacity:1;stroke:url(#linearGradient43);stroke-width:1.065;stroke-dasharray:none;stroke-opacity:1"
         d="M 50.881409,77.863098 34.599358,83.096615"
         id="path21" />
      <path
         style="fill:none;fill-opacity:1;stroke:url(#linearGradient44);stroke-width:1.065;stroke-dasharray:none;stroke-opacity:1"
         d="m 34.308608,64.633932 c 0,0 -1.163003,9.30403 -0.145376,18.171932"
         id="path22" />
      <path
         style="fill:none;fill-opacity:1;stroke:url(#linearGradient45);stroke-width:1.065;stroke-dasharray:none;stroke-opacity:1"
         d="m 13.374542,68.55907 c 0,0 13.374542,7.7049 21.224816,14.68292"
         id="path23" />
      <path
         style="fill:none;fill-opacity:1;stroke:url(#linearGradient46);stroke-width:1.065;stroke-dasharray:none;stroke-opacity:1"
         d="m 67.942287,118.20887 c 0,0 41.577383,2.47138 52.771293,-30.092767"
         id="path2-9" />
      <path
         style="fill:none;fill-opacity:1;stroke:url(#linearGradient47);stroke-width:1.065;stroke-dasharray:none;stroke-opacity:1"
         d="m 120.5682,87.825352 c 0,0 2.47139,-11.339285 1.59913,-19.625686"
         id="path3-5" />
      <path
         style="fill:none;fill-opacity:1;stroke:url(#linearGradient48);stroke-width:1.065;stroke-dasharray:none;stroke-opacity:1"
         d="M 68.087657,117.62736 89.893979,102.94442"
         id="path4-0" />
      <path
         style="fill:none;fill-opacity:1;stroke:url(#linearGradient49);stroke-width:1.065;stroke-dasharray:none;stroke-opacity:1"
         d="m 105.01303,107.8872 c 0,0 -4.21589,-0.43612 -15.409801,-5.52429"
         id="path5-4" />
      <path
         style="fill:none;fill-opacity:1;stroke:url(#linearGradient50);stroke-width:1.065;stroke-dasharray:none;stroke-opacity:1"
         d="m 84.660467,77.794445 c 0,0 -9.74016,13.083791 -16.71818,40.559795"
         id="path6-8" />
      <path
         style="fill:none;fill-opacity:1;stroke:url(#linearGradient51);stroke-width:1.065;stroke-dasharray:none;stroke-opacity:1"
         d="m 120.5682,88.261478 c 0,0 -16.28205,11.920792 -30.674221,14.101432"
         id="path7-7" />
      <path
         style="fill:none;fill-opacity:1;stroke:url(#linearGradient52);stroke-width:1.065;stroke-dasharray:none;stroke-opacity:1"
         d="m 101.23326,64.710654 c 0,0 -1.453751,-6.97802 -5.815013,-14.101419"
         id="path8-1" />
      <path
         style="fill:none;fill-opacity:1;stroke:url(#linearGradient53);stroke-width:1.065;stroke-dasharray:none;stroke-opacity:1"
         d="m 84.805837,77.503694 c 0,0 5.524268,-5.233516 16.572803,-12.938416"
         id="path9-7" />
      <path
         style="fill:none;fill-opacity:1;stroke:url(#linearGradient54);stroke-width:1.065;stroke-dasharray:none;stroke-opacity:1"
         d="M 95.563622,50.609235 82.334457,65.437533"
         id="path10-2" />
      <path
         style="fill:none;fill-opacity:1;stroke:url(#linearGradient55);stroke-width:1.065;stroke-dasharray:none;stroke-opacity:1"
         d="m 67.796907,82.44646 c 0,0 8.86791,-11.048534 14.8283,-17.590431"
         id="path11-7" />
      <path
         style="fill:none;fill-opacity:1;stroke:url(#linearGradient56);stroke-width:1.065;stroke-dasharray:none;stroke-opacity:1"
         d="m 77.391687,51.626863 c 0,0 -3.63438,3.779763 -9.59478,11.630038"
         id="path14-2" />
      <path
         style="fill:none;fill-opacity:1;stroke:url(#linearGradient57);stroke-width:1.065;stroke-dasharray:none;stroke-opacity:1"
         d="m 67.942287,37.525444 c 0,0 5.08814,6.832648 9.59478,14.392172"
         id="path15-2" />
      <path
         style="fill:none;fill-opacity:1;stroke:url(#linearGradient58);stroke-width:1.065;stroke-dasharray:none;stroke-opacity:1"
         d="m 82.479827,65.146782 c 0,0 -1.59913,-7.123398 -5.08814,-13.665295"
         id="path16-6" />
      <path
         style="fill:none;fill-opacity:1;stroke:url(#linearGradient59);stroke-width:1.065;stroke-dasharray:none;stroke-opacity:1"
         d="m 84.805837,77.358319 -2.47138,-12.50229"
         id="path17-1" />
      <path
         style="fill:none;fill-opacity:1;stroke:url(#linearGradient60);stroke-width:1.065;stroke-dasharray:none;stroke-opacity:1"
         d="m 90.18473,102.50828 c 0,0 -3.634393,-7.850281 -5.233513,-24.56846"
         id="path18-0" />
      <path
         style="fill:none;fill-opacity:1;stroke:url(#linearGradient61);stroke-width:1.065;stroke-dasharray:none;stroke-opacity:1"
         d="m 101.23326,83.173337 c 0,0 -5.088137,9.594781 -11.630031,19.916453"
         id="path19-6" />
      <path
         style="fill:none;fill-opacity:1;stroke:url(#linearGradient62);stroke-width:1.065;stroke-dasharray:none;stroke-opacity:1"
         d="m 120.5682,87.970727 c 0,0 -12.06616,-4.215886 -19.48031,-4.361262"
         id="path20-1" />
      <path
         style="fill:none;fill-opacity:1;stroke:url(#linearGradient63);stroke-width:1.065;stroke-dasharray:none;stroke-opacity:1"
         d="m 84.660467,77.93982 16.282043,5.233517"
         id="path21-5" />
      <path
         style="fill:none;fill-opacity:1;stroke:url(#linearGradient64);stroke-width:1.065;stroke-dasharray:none;stroke-opacity:1"
         d="m 101.23326,64.710654 c 0,0 1.16301,9.30403 0.14538,18.171932"
         id="path22-9" />
      <path
         style="fill:none;fill-opacity:1;stroke:url(#linearGradient65);stroke-width:1.065;stroke-dasharray:none;stroke-opacity:1"
         d="m 122.16733,68.635792 c 0,0 -13.37454,7.7049 -21.22482,14.68292"
         id="path23-4" />
    </g>
  </g>
  <path
     d="M 314.35041,97.858734 297.41198,60.908641 v 36.950093 h -10.00583 v -50.02914 h 15.29462 l 16.93844,36.950094 V 47.829594 h 10.00583 v 50.02914 z M 356.72116,81.92088 q 0.35735,3.502039 3.14469,5.574675 2.85881,2.072636 6.93261,2.072636 3.64498,0 6.14644,-1.214993 2.50145,-1.286464 2.50145,-4.002332 0,-1.929695 -1.57234,-3.073218 -1.57235,-1.143523 -4.21674,-1.858225 -2.57293,-0.714702 -5.64615,-1.429404 -3.07322,-0.714702 -6.21791,-1.715285 -3.07321,-1.072053 -5.71761,-2.858808 -2.57293,-1.786755 -4.14527,-4.645563 -1.57235,-2.930278 -1.57235,-7.361431 0,-4.288212 2.50146,-7.575841 2.57293,-3.359099 7.00408,-5.217324 4.50262,-1.929696 10.22024,-1.929696 5.57467,0 9.93435,2.215576 4.35969,2.215577 6.86114,6.074967 2.57293,3.859391 2.57293,8.719365 h -10.86347 q -0.28588,-3.57351 -2.50146,-5.574676 -2.1441,-2.001165 -6.36084,-2.001165 -4.14528,0 -6.36085,1.500874 -2.21558,1.500874 -2.21558,3.78792 0,2.144106 1.57235,3.3591 1.57234,1.214993 4.14527,2.001165 2.6444,0.786173 5.71761,1.500875 3.14469,0.643231 6.21791,1.643814 3.07322,1.000583 5.64615,2.715868 2.64439,1.715284 4.21674,4.574092 1.57234,2.787338 1.57234,7.14702 0,6.93261 -5.21732,10.792001 -5.21733,3.85939 -14.65139,3.85939 -5.78909,0 -10.36318,-2.215576 -4.57409,-2.215576 -7.28996,-6.074967 -2.71587,-3.859391 -2.93028,-8.790834 z m 54.37771,15.937854 -12.93611,-50.02914 H 408.383 l 9.71995,39.665961 9.64848,-39.665961 h 11.29229 l 9.71995,39.665961 9.64847,-39.665961 h 10.22024 l -12.93611,50.02914 h -13.93668 l -8.36202,-32.30453 -8.36201,32.30453 z"
     id="text2"
     style="font-weight:bold;font-size:71.4702px;font-family:'Stack Sans Notch';-inkscape-font-specification:'Stack Sans Notch, Bold';letter-spacing:9.7803;fill:#f8fafc;stroke-width:0.812161;fill-opacity:1"
     inkscape:label="text2"
     aria-label="NSW" />
  <path
     d="m 309.23701,122.01765 h -0.12464 l -2.11884,4.23767 -5.65022,10.26181 -5.5256,-10.22026 -2.20192,-4.57004 h -0.12464 v 19.31879 h -5.94105 v -28.99896 h 6.68887 l 7.10434,13.58547 h 0.0831 l 7.02124,-13.58547 h 6.73042 v 28.99896 h -5.94105 z m 35.72861,19.02797 v -28.99896 h 19.73426 v 5.60868 h -13.4193 v 5.94105 h 11.50819 v 5.56714 h -11.50819 v 6.27341 h 13.4193 v 5.60868 z m 57.99716,0.49855 q -3.82221,0 -6.48114,-1.28792 -2.65893,-1.32946 -4.52849,-3.40675 l 4.15458,-4.19613 q 2.94975,3.32367 7.27051,3.32367 2.32656,0 3.4483,-0.95556 1.12174,-0.95555 1.12174,-2.53429 0,-1.20483 -0.66473,-1.9942 -0.66474,-0.83092 -2.70048,-1.12174 l -2.86666,-0.37391 q -4.61159,-0.58164 -6.77197,-2.78357 -2.11883,-2.20192 -2.11883,-5.85795 0,-1.95266 0.74782,-3.57294 0.74783,-1.62029 2.11884,-2.78357 1.41255,-1.16328 3.40675,-1.78647 2.03575,-0.66473 4.61159,-0.66473 3.28211,0 5.77486,1.03864 2.49275,1.03865 4.27922,3.03284 l -4.19613,4.23768 q -1.03864,-1.20483 -2.53429,-1.95266 -1.4541,-0.78937 -3.69758,-0.78937 -2.11883,0 -3.15748,0.74783 -1.03864,0.74782 -1.03864,2.07729 0,1.49565 0.78937,2.16038 0.83091,0.66473 2.65893,0.95555 l 2.86666,0.45701 q 4.48695,0.70628 6.64733,2.78357 2.16038,2.03574 2.16038,5.81641 0,2.07729 -0.74782,3.82221 -0.74783,1.74492 -2.20193,2.9913 -1.41256,1.24637 -3.5314,1.95265 -2.11883,0.66473 -4.81931,0.66473 z m 57.2909,-12.38064 H 449.2025 v 11.88209 h -6.31497 v -28.99896 h 6.31497 v 11.54973 h 11.05118 v -11.54973 h 6.31496 v 28.99896 h -6.31496 z"
     id="text3"
     style="font-weight:bold;font-size:41.5458px;font-family:'IBM Plex Sans';-inkscape-font-specification:'IBM Plex Sans, Bold';letter-spacing:23.3895;fill:url(#meshTextGradient);stroke-width:1.09331"
     aria-label="MESH" />
  <metadata
     id="metadata3">
    <rdf:RDF>
      <cc:Work
         rdf:about="">
        <dc:title>NSW Mesh horizontal logo</dc:title>
      </cc:Work>
    </rdf:RDF>
  </metadata>
  <rect
     style="fill:#f8fafc;fill-opacity:1"
     id="rect3"
     width="3.5776398"
     height="124.62112"
     x="251.03105"
     y="35.776398"
     rx="3" />
</svg>
