<?xml version="1.0" encoding="UTF-8" standalone="no"?>
<svg
   viewBox="0 0 450 550"
   role="img"
   aria-labelledby="title desc"
   version="1.1"
   id="svg3"
   sodipodi:docname="logo-primary-dark.svg"
   width="450"
   height="550"
   inkscape:version="1.4.3 (0d15f75042, 2025-12-25)"
   xmlns:inkscape="http://www.inkscape.org/namespaces/inkscape"
   xmlns:sodipodi="http://sodipodi.sourceforge.net/DTD/sodipodi-0.dtd"
   xmlns:xlink="http://www.w3.org/1999/xlink"
   xmlns="http://www.w3.org/2000/svg"
   xmlns:svg="http://www.w3.org/2000/svg"
   xmlns:rdf="http://www.w3.org/1999/02/22-rdf-syntax-ns#"
   xmlns:cc="http://creativecommons.org/ns#"
   xmlns:dc="http://purl.org/dc/elements/1.1/">
  <sodipodi:namedview
     id="namedview3"
     pagecolor="#ffffff"
     bordercolor="#000000"
     borderopacity="0.25"
     inkscape:showpageshadow="2"
     inkscape:pageopacity="0.0"
     inkscape:pagecheckerboard="0"
     inkscape:deskcolor="#d1d1d1"
     inkscape:zoom="1.8854839"
     inkscape:cx="255.63729"
     inkscape:cy="310.53036"
     inkscape:window-width="2560"
     inkscape:window-height="1371"
     inkscape:window-x="0"
     inkscape:window-y="787"
     inkscape:window-maximized="1"
     inkscape:current-layer="svg3" />
  <title
     id="title">NSW Mesh primary logo</title>
  <desc
     id="desc">NSW Mesh stacked logo with gradient node mark and gradient Mesh text.</desc>
  <defs
     id="defs2">
    <linearGradient
       id="meshTextGradient"
       x1="116"
       x2="396"
       y1="540"
       y2="540"
       gradientUnits="userSpaceOnUse"
       gradientTransform="matrix(1.1298303,0,0,1.1298303,-70.360805,-113.86043)">
      <stop
         offset="0"
         stop-color="#FF6A00"
         id="stop1" />
      <stop
         offset="1"
         stop-color="#E11D48"
         id="stop2" />
    </linearGradient>
    <linearGradient
       inkscape:collect="always"
       xlink:href="#linearGradient420"
       id="linearGradient421"
       x1="67.599586"
       y1="33.58173"
       x2="67.744965"
       y2="123.13301"
       gradientUnits="userSpaceOnUse" />
    <linearGradient
       id="linearGradient420"
       inkscape:collect="always">
      <stop
         style="stop-color:#000000;stop-opacity:1;"
         offset="0"
         id="stop420" />
      <stop
         style="stop-color:#000000;stop-opacity:1"
         offset="1"
         id="stop421" />
    </linearGradient>
    <linearGradient
       inkscape:collect="always"
       xlink:href="#linearGradient427"
       id="linearGradient431"
       x1="67.420761"
       y1="37.532967"
       x2="67.440788"
       y2="118.08229"
       gradientUnits="userSpaceOnUse" />
    <linearGradient
       id="linearGradient427"
       inkscape:collect="always">
      <stop
         style="stop-color:#ff6a00;stop-opacity:1;"
         offset="0"
         id="stop427" />
      <stop
         style="stop-color:#e11d48;stop-opacity:1;"
         offset="1"
         id="stop428" />
    </linearGradient>
    <linearGradient
       inkscape:collect="always"
       xlink:href="#linearGradient427"
       id="linearGradient432"
       gradientUnits="userSpaceOnUse"
       x1="67.770943"
       y1="20.80196"
       x2="67.770943"
       y2="136.13084" />
    <linearGradient
       inkscape:collect="always"
       xlink:href="#linearGradient427"
       id="linearGradient525"
       x1="67.770935"
       y1="22.840298"
       x2="67.770935"
       y2="133.07452"
       gradientUnits="userSpaceOnUse" />
    <linearGradient
       inkscape:collect="always"
       xlink:href="#linearGradient427"
       id="linearGradient3"
       gradientUnits="userSpaceOnUse"
       x1="67.770943"
       y1="20.80196"
       x2="67.770943"
       y2="136.13084" />
    <linearGradient
       inkscape:collect="always"
       xlink:href="#linearGradient427"
       id="linearGradient4"
       gradientUnits="userSpaceOnUse"
       x1="67.770943"
       y1="20.80196"
       x2="67.770943"
       y2="136.13084" />
    <linearGradient
       inkscape:collect="always"
       xlink:href="#linearGradient427"
       id="linearGradient5"
       gradientUnits="userSpaceOnUse"
       x1="67.770943"
       y1="20.80196"
       x2="67.770943"
       y2="136.13084" />
    <linearGradient
       inkscape:collect="always"
       xlink:href="#linearGradient427"
       id="linearGradient6"
       gradientUnits="userSpaceOnUse"
       x1="67.770943"
       y1="20.80196"
       x2="67.770943"
       y2="136.13084" />
    <linearGradient
       inkscape:collect="always"
       xlink:href="#linearGradient427"
       id="linearGradient7"
       gradientUnits="userSpaceOnUse"
       x1="67.770943"
       y1="20.80196"
       x2="67.770943"
       y2="136.13084" />
    <linearGradient
       inkscape:collect="always"
       xlink:href="#linearGradient427"
       id="linearGradient8"
       gradientUnits="userSpaceOnUse"
       x1="67.770943"
       y1="20.80196"
       x2="67.770943"
       y2="136.13084" />
    <linearGradient
       inkscape:collect="always"
       xlink:href="#linearGradient427"
       id="linearGradient9"
       gradientUnits="userSpaceOnUse"
       x1="67.770943"
       y1="20.80196"
       x2="67.770943"
       y2="136.13084" />
    <linearGradient
       inkscape:collect="always"
       xlink:href="#linearGradient427"
       id="linearGradient10"
       gradientUnits="userSpaceOnUse"
       x1="67.770943"
       y1="20.80196"
       x2="67.770943"
       y2="136.13084" />
    <linearGradient
       inkscape:collect="always"
       xlink:href="#linearGradient427"
       id="linearGradient11"
       gradientUnits="userSpaceOnUse"
       x1="67.770943"
       y1="20.80196"
       x2="67.770943"
       y2="136.13084" />
    <linearGradient
       inkscape:collect="always"
       xlink:href="#linearGradient427"
       id="linearGradient12"
       gradientUnits="userSpaceOnUse"
       x1="67.770943"
       y1="20.80196"
       x2="67.770943"
       y2="136.13084" />
    <linearGradient
       inkscape:collect="always"
       xlink:href="#linearGradient427"
       id="linearGradient13"
       gradientUnits="userSpaceOnUse"
       x1="67.770943"
       y1="20.80196"
       x2="67.770943"
       y2="136.13084" />
    <linearGradient
       inkscape:collect="always"
       xlink:href="#linearGradient427"
       id="linearGradient14"
       gradientUnits="userSpaceOnUse"
       x1="67.770943"
       y1="20.80196"
       x2="67.770943"
       y2="136.13084" />
    <linearGradient
       inkscape:collect="always"
       xlink:href="#linearGradient427"
       id="linearGradient15"
       gradientUnits="userSpaceOnUse"
       x1="67.770943"
       y1="20.80196"
       x2="67.770943"
       y2="136.13084" />
    <linearGradient
       inkscape:collect="always"
       xlink:href="#linearGradient427"
       id="linearGradient16"
       gradientUnits="userSpaceOnUse"
       x1="67.770943"
       y1="20.80196"
       x2="67.770943"
       y2="136.13084" />
    <linearGradient
       inkscape:collect="always"
       xlink:href="#linearGradient427"
       id="linearGradient17"
       gradientUnits="userSpaceOnUse"
       x1="67.770943"
       y1="20.80196"
       x2="67.770943"
       y2="136.13084" />
    <linearGradient
       inkscape:collect="always"
       xlink:href="#linearGradient427"
       id="linearGradient18"
       gradientUnits="userSpaceOnUse"
       x1="67.770943"
       y1="20.80196"
       x2="67.770943"
       y2="136.13084" />
    <linearGradient
       inkscape:collect="always"
       xlink:href="#linearGradient427"
       id="linearGradient19"
       gradientUnits="userSpaceOnUse"
       x1="67.770943"
       y1="20.80196"
       x2="67.770943"
       y2="136.13084" />
    <linearGradient
       inkscape:collect="always"
       xlink:href="#linearGradient427"
       id="linearGradient20"
       gradientUnits="userSpaceOnUse"
       x1="67.770943"
       y1="20.80196"
       x2="67.770943"
       y2="136.13084" />
    <linearGradient
       inkscape:collect="always"
       xlink:href="#linearGradient427"
       id="linearGradient21"
       gradientUnits="userSpaceOnUse"
       x1="67.770943"
       y1="20.80196"
       x2="67.770943"
       y2="136.13084" />
    <linearGradient
       inkscape:collect="always"
       xlink:href="#linearGradient427"
       id="linearGradient22"
       gradientUnits="userSpaceOnUse"
       x1="67.770943"
       y1="20.80196"
       x2="67.770943"
       y2="136.13084" />
    <linearGradient
       inkscape:collect="always"
       xlink:href="#linearGradient427"
       id="linearGradient23"
       gradientUnits="userSpaceOnUse"
       x1="67.770943"
       y1="20.80196"
       x2="67.770943"
       y2="136.13084" />
    <linearGradient
       inkscape:collect="always"
       xlink:href="#linearGradient427"
       id="linearGradient24"
       gradientUnits="userSpaceOnUse"
       x1="67.770943"
       y1="20.80196"
       x2="67.770943"
       y2="136.13084" />
    <linearGradient
       inkscape:collect="always"
       xlink:href="#linearGradient427"
       id="linearGradient25"
       gradientUnits="userSpaceOnUse"
       x1="67.770943"
       y1="20.80196"
       x2="67.770943"
       y2="136.13084" />
    <linearGradient
       inkscape:collect="always"
       xlink:href="#linearGradient427"
       id="linearGradient26"
       gradientUnits="userSpaceOnUse"
       x1="67.770935"
       y1="22.840298"
       x2="67.770935"
       y2="133.07452" />
    <linearGradient
       inkscape:collect="always"
       xlink:href="#linearGradient427"
       id="linearGradient27"
       gradientUnits="userSpaceOnUse"
       x1="67.770935"
       y1="22.840298"
       x2="67.770935"
       y2="133.07452" />
    <linearGradient
       inkscape:collect="always"
       xlink:href="#linearGradient427"
       id="linearGradient28"
       gradientUnits="userSpaceOnUse"
       x1="67.770935"
       y1="22.840298"
       x2="67.770935"
       y2="133.07452" />
    <linearGradient
       inkscape:collect="always"
       xlink:href="#linearGradient427"
       id="linearGradient29"
       gradientUnits="userSpaceOnUse"
       x1="67.770935"
       y1="22.840298"
       x2="67.770935"
       y2="133.07452" />
    <linearGradient
       inkscape:collect="always"
       xlink:href="#linearGradient427"
       id="linearGradient30"
       gradientUnits="userSpaceOnUse"
       x1="67.770935"
       y1="22.840298"
       x2="67.770935"
       y2="133.07452" />
    <linearGradient
       inkscape:collect="always"
       xlink:href="#linearGradient427"
       id="linearGradient31"
       gradientUnits="userSpaceOnUse"
       x1="67.770935"
       y1="22.840298"
       x2="67.770935"
       y2="133.07452" />
    <linearGradient
       inkscape:collect="always"
       xlink:href="#linearGradient427"
       id="linearGradient32"
       gradientUnits="userSpaceOnUse"
       x1="67.770935"
       y1="22.840298"
       x2="67.770935"
       y2="133.07452" />
    <linearGradient
       inkscape:collect="always"
       xlink:href="#linearGradient427"
       id="linearGradient33"
       gradientUnits="userSpaceOnUse"
       x1="67.770935"
       y1="22.840298"
       x2="67.770935"
       y2="133.07452" />
    <linearGradient
       inkscape:collect="always"
       xlink:href="#linearGradient427"
       id="linearGradient34"
       gradientUnits="userSpaceOnUse"
       x1="67.770935"
       y1="22.840298"
       x2="67.770935"
       y2="133.07452" />
    <linearGradient
       inkscape:collect="always"
       xlink:href="#linearGradient427"
       id="linearGradient35"
       gradientUnits="userSpaceOnUse"
       x1="67.770935"
       y1="22.840298"
       x2="67.770935"
       y2="133.07452" />
    <linearGradient
       inkscape:collect="always"
       xlink:href="#linearGradient427"
       id="linearGradient36"
       gradientUnits="userSpaceOnUse"
       x1="67.770935"
       y1="22.840298"
       x2="67.770935"
       y2="133.07452" />
    <linearGradient
       inkscape:collect="always"
       xlink:href="#linearGradient427"
       id="linearGradient37"
       gradientUnits="userSpaceOnUse"
       x1="67.770935"
       y1="22.840298"
       x2="67.770935"
       y2="133.07452" />
    <linearGradient
       inkscape:collect="always"
       xlink:href="#linearGradient427"
       id="linearGradient38"
       gradientUnits="userSpaceOnUse"
       x1="67.770935"
       y1="22.840298"
       x2="67.770935"
       y2="133.07452" />
    <linearGradient
       inkscape:collect="always"
       xlink:href="#linearGradient427"
       id="linearGradient39"
       gradientUnits="userSpaceOnUse"
       x1="67.770935"
       y1="22.840298"
       x2="67.770935"
       y2="133.07452" />
    <linearGradient
       inkscape:collect="always"
       xlink:href="#linearGradient427"
       id="linearGradient40"
       gradientUnits="userSpaceOnUse"
       x1="67.770935"
       y1="22.840298"
       x2="67.770935"
       y2="133.07452" />
    <linearGradient
       inkscape:collect="always"
       xlink:href="#linearGradient427"
       id="linearGradient41"
       gradientUnits="userSpaceOnUse"
       x1="67.770935"
       y1="22.840298"
       x2="67.770935"
       y2="133.07452" />
    <linearGradient
       inkscape:collect="always"
       xlink:href="#linearGradient427"
       id="linearGradient42"
       gradientUnits="userSpaceOnUse"
       x1="67.770935"
       y1="22.840298"
       x2="67.770935"
       y2="133.07452" />
    <linearGradient
       inkscape:collect="always"
       xlink:href="#linearGradient427"
       id="linearGradient43"
       gradientUnits="userSpaceOnUse"
       x1="67.770935"
       y1="22.840298"
       x2="67.770935"
       y2="133.07452" />
    <linearGradient
       inkscape:collect="always"
       xlink:href="#linearGradient427"
       id="linearGradient44"
       gradientUnits="userSpaceOnUse"
       x1="67.770935"
       y1="22.840298"
       x2="67.770935"
       y2="133.07452" />
    <linearGradient
       inkscape:collect="always"
       xlink:href="#linearGradient427"
       id="linearGradient45"
       gradientUnits="userSpaceOnUse"
       x1="67.770935"
       y1="22.840298"
       x2="67.770935"
       y2="133.07452" />
    <linearGradient
       inkscape:collect="always"
       xlink:href="#linearGradient427"
       id="linearGradient46"
       gradientUnits="userSpaceOnUse"
       x1="67.770935"
       y1="22.840298"
       x2="67.770935"
       y2="133.07452" />
    <linearGradient
       inkscape:collect="always"
       xlink:href="#linearGradient427"
       id="linearGradient47"
       gradientUnits="userSpaceOnUse"
       x1="67.770935"
       y1="22.840298"
       x2="67.770935"
       y2="133.07452" />
    <linearGradient
       inkscape:collect="always"
       xlink:href="#linearGradient427"
       id="linearGradient48"
       gradientUnits="userSpaceOnUse"
       x1="67.770935"
       y1="22.840298"
       x2="67.770935"
       y2="133.07452" />
    <linearGradient
       inkscape:collect="always"
       xlink:href="#linearGradient427"
       id="linearGradient49"
       gradientUnits="userSpaceOnUse"
       x1="67.770935"
       y1="22.840298"
       x2="67.770935"
       y2="133.07452" />
    <linearGradient
       inkscape:collect="always"
       xlink:href="#linearGradient427"
       id="linearGradient50"
       gradientUnits="userSpaceOnUse"
       x1="67.770935"
       y1="22.840298"
       x2="67.770935"
       y2="133.07452" />
    <linearGradient
       inkscape:collect="always"
       xlink:href="#linearGradient427"
       id="linearGradient51"
       gradientUnits="userSpaceOnUse"
       x1="67.770935"
       y1="22.840298"
       x2="67.770935"
       y2="133.07452" />
    <linearGradient
       inkscape:collect="always"
       xlink:href="#linearGradient427"
       id="linearGradient52"
       gradientUnits="userSpaceOnUse"
       x1="67.770935"
       y1="22.840298"
       x2="67.770935"
       y2="133.07452" />
    <linearGradient
       inkscape:collect="always"
       xlink:href="#linearGradient427"
       id="linearGradient53"
       gradientUnits="userSpaceOnUse"
       x1="67.770935"
       y1="22.840298"
       x2="67.770935"
       y2="133.07452" />
    <linearGradient
       inkscape:collect="always"
       xlink:href="#linearGradient427"
       id="linearGradient54"
       gradientUnits="userSpaceOnUse"
       x1="67.770935"
       y1="22.840298"
       x2="67.770935"
       y2="133.07452" />
    <linearGradient
       inkscape:collect="always"
       xlink:href="#linearGradient427"
       id="linearGradient55"
       gradientUnits="userSpaceOnUse"
       x1="67.770935"
       y1="22.840298"
       x2="67.770935"
       y2="133.07452" />
    <linearGradient
       inkscape:collect="always"
       xlink:href="#linearGradient427"
       id="linearGradient56"
       gradientUnits="userSpaceOnUse"
       x1="67.770935"
       y1="22.840298"
       x2="67.770935"
       y2="133.07452" />
    <linearGradient
       inkscape:collect="always"
       xlink:href="#linearGradient427"
       id="linearGradient57"
       gradientUnits="userSpaceOnUse"
       x1="67.770935"
       y1="22.840298"
       x2="67.770935"
       y2="133.07452" />
    <linearGradient
       inkscape:collect="always"
       xlink:href="#linearGradient427"
       id="linearGradient58"
       gradientUnits="userSpaceOnUse"
       x1="67.770935"
       y1="22.840298"
       x2="67.770935"
       y2="133.07452" />
    <linearGradient
       inkscape:collect="always"
       xlink:href="#linearGradient427"
       id="linearGradient59"
       gradientUnits="userSpaceOnUse"
       x1="67.770935"
       y1="22.840298"
       x2="67.770935"
       y2="133.07452" />
    <linearGradient
       inkscape:collect="always"
       xlink:href="#linearGradient427"
       id="linearGradient60"
       gradientUnits="userSpaceOnUse"
       x1="67.770935"
       y1="22.840298"
       x2="67.770935"
       y2="133.07452" />
    <linearGradient
       inkscape:collect="always"
       xlink:href="#linearGradient427"
       id="linearGradient61"
       gradientUnits="userSpaceOnUse"
       x1="67.770935"
       y1="22.840298"
       x2="67.770935"
       y2="133.07452" />
    <linearGradient
       inkscape:collect="always"
       xlink:href="#linearGradient427"
       id="linearGradient62"
       gradientUnits="userSpaceOnUse"
       x1="67.770935"
       y1="22.840298"
       x2="67.770935"
       y2="133.07452" />
    <linearGradient
       inkscape:collect="always"
       xlink:href="#linearGradient427"
       id="linearGradient63"
       gradientUnits="userSpaceOnUse"
       x1="67.770935"
       y1="22.840298"
       x2="67.770935"
       y2="133.07452" />
    <linearGradient
       inkscape:collect="always"
       xlink:href="#linearGradient427"
       id="linearGradient64"
       gradientUnits="userSpaceOnUse"
       x1="67.770935"
       y1="22.840298"
       x2="67.770935"
       y2="133.07452" />
    <linearGradient
       inkscape:collect="always"
       xlink:href="#linearGradient427"
       id="linearGradient65"
       gradientUnits="userSpaceOnUse"
       x1="67.770935"
       y1="22.840298"
       x2="67.770935"
       y2="133.07452" />
    <linearGradient
       inkscape:collect="always"
       xlink:href="#linearGradient427"
       id="linearGradient66"
       gradientUnits="userSpaceOnUse"
       x1="67.770935"
       y1="22.840298"
       x2="67.770935"
       y2="133.07452" />
    <linearGradient
       inkscape:collect="always"
       xlink:href="#linearGradient427"
       id="linearGradient67"
       gradientUnits="userSpaceOnUse"
       x1="67.770935"
       y1="22.840298"
       x2="67.770935"
       y2="133.07452" />
  </defs>
  <g
     id="g418"
     style="fill-opacity:1;stroke:url(#linearGradient421)"
     transform="matrix(3.3339653,0,0,3.3339653,-3.8670745,-89.874036)">
    <g
       id="g427"
       style="fill:url(#linearGradient431);stroke:none;stroke-width:0;stroke-dasharray:none">
      <circle
         style="fill:url(#linearGradient3);fill-opacity:1;stroke:none;stroke-width:0;stroke-dasharray:none"
         id="path1"
         cx="67.515266"
         cy="117.6756"
         r="5.4283195" />
      <circle
         style="fill:url(#linearGradient4);fill-opacity:1;stroke:none;stroke-width:0;stroke-dasharray:none"
         id="path1-3-1"
         cx="30.270079"
         cy="107.88311"
         r="3.7623167" />
      <circle
         style="fill:url(#linearGradient5);fill-opacity:1;stroke:none;stroke-width:0;stroke-dasharray:none"
         id="path1-3-1-0"
         cx="45.691509"
         cy="102.606"
         r="4.4891939" />
      <circle
         style="fill:url(#linearGradient6);fill-opacity:1;stroke:none;stroke-width:0;stroke-dasharray:none"
         id="path1-3-1-0-4"
         cx="67.774033"
         cy="82.407539"
         r="4.4891939" />
      <circle
         style="fill:url(#linearGradient7);fill-opacity:1;stroke:none;stroke-width:0;stroke-dasharray:none"
         id="path1-3-1-6"
         cx="15.05508"
         cy="88.001587"
         r="3.7623167" />
      <circle
         style="fill:url(#linearGradient8);fill-opacity:1;stroke:none;stroke-width:0;stroke-dasharray:none"
         id="path1-3-1-7"
         cx="34.529579"
         cy="83.175117"
         r="3.7623167" />
      <circle
         style="fill:url(#linearGradient9);fill-opacity:1;stroke:none;stroke-width:0;stroke-dasharray:none"
         id="path1-3-1-3"
         cx="50.660435"
         cy="77.525833"
         r="3.7623167" />
      <circle
         style="fill:url(#linearGradient10);fill-opacity:1;stroke:none;stroke-width:0;stroke-dasharray:none"
         id="path1-3-1-3-1"
         cx="67.576332"
         cy="62.430042"
         r="3.7623167" />
      <circle
         style="fill:url(#linearGradient11);fill-opacity:1;stroke:none;stroke-width:0;stroke-dasharray:none"
         id="path1-3-1-3-1-6"
         cx="67.852547"
         cy="37.591194"
         r="3.7623167" />
      <circle
         style="fill:url(#linearGradient12);fill-opacity:1;stroke:none;stroke-width:0;stroke-dasharray:none"
         id="path1-3-1-2"
         cx="13.650755"
         cy="68.582329"
         r="3.5442536" />
      <circle
         style="fill:url(#linearGradient13);fill-opacity:1;stroke:none;stroke-width:0;stroke-dasharray:none"
         id="path1-3-1-2-6"
         cx="34.378387"
         cy="64.665916"
         r="3.5442536" />
      <circle
         style="fill:url(#linearGradient14);fill-opacity:1;stroke:none;stroke-width:0;stroke-dasharray:none"
         id="path1-3-1-2-6-9"
         cx="40.042213"
         cy="50.503437"
         r="2.9627519" />
      <circle
         style="fill:url(#linearGradient15);fill-opacity:1;stroke:none;stroke-width:0;stroke-dasharray:none"
         id="path1-3-1-2-6-9-2"
         cx="58.281021"
         cy="51.422215"
         r="2.9627519" />
      <circle
         style="fill:url(#linearGradient16);fill-opacity:1;stroke:none;stroke-width:0;stroke-dasharray:none"
         id="path1-3-1-2-1"
         cx="53.187065"
         cy="64.8927"
         r="3.5442536" />
      <circle
         style="fill:url(#linearGradient17);fill-opacity:1;stroke:none;stroke-width:0;stroke-dasharray:none"
         id="path1-3-1-1"
         cx="-105.2718"
         cy="107.95982"
         r="3.7623167"
         transform="scale(-1,1)" />
      <circle
         style="fill:url(#linearGradient18);fill-opacity:1;stroke:none;stroke-width:0;stroke-dasharray:none"
         id="path1-3-1-0-49"
         cx="-89.850365"
         cy="102.68272"
         r="4.4891939"
         transform="scale(-1,1)" />
      <circle
         style="fill:url(#linearGradient19);fill-opacity:1;stroke:none;stroke-width:0;stroke-dasharray:none"
         id="path1-3-1-6-2"
         cx="-120.48679"
         cy="88.078308"
         r="3.7623167"
         transform="scale(-1,1)" />
      <circle
         style="fill:url(#linearGradient20);fill-opacity:1;stroke:none;stroke-width:0;stroke-dasharray:none"
         id="path1-3-1-7-0"
         cx="-101.01229"
         cy="83.251839"
         r="3.7623167"
         transform="scale(-1,1)" />
      <circle
         style="fill:url(#linearGradient21);fill-opacity:1;stroke:none;stroke-width:0;stroke-dasharray:none"
         id="path1-3-1-3-6"
         cx="-84.881439"
         cy="77.602554"
         r="3.7623167"
         transform="scale(-1,1)" />
      <circle
         style="fill:url(#linearGradient22);fill-opacity:1;stroke:none;stroke-width:0;stroke-dasharray:none"
         id="path1-3-1-2-8"
         cx="-121.89113"
         cy="68.659042"
         r="3.5442536"
         transform="scale(-1,1)" />
      <circle
         style="fill:url(#linearGradient23);fill-opacity:1;stroke:none;stroke-width:0;stroke-dasharray:none"
         id="path1-3-1-2-6-92"
         cx="-101.16348"
         cy="64.742638"
         r="3.5442536"
         transform="scale(-1,1)" />
      <circle
         style="fill:url(#linearGradient24);fill-opacity:1;stroke:none;stroke-width:0;stroke-dasharray:none"
         id="path1-3-1-2-6-9-6"
         cx="-95.499657"
         cy="50.580158"
         r="2.9627519"
         transform="scale(-1,1)" />
      <circle
         style="fill:url(#linearGradient25);fill-opacity:1;stroke:none;stroke-width:0;stroke-dasharray:none"
         id="path1-3-1-2-6-9-2-6"
         cx="-77.260849"
         cy="51.498936"
         r="2.9627519"
         transform="scale(-1,1)" />
      <circle
         style="fill:url(#linearGradient432);fill-opacity:1;stroke:none;stroke-width:0;stroke-dasharray:none"
         id="path1-3-1-2-1-4"
         cx="-82.354805"
         cy="64.969421"
         r="3.5442536"
         transform="scale(-1,1)" />
    </g>
    <g
       id="g426"
       style="stroke:url(#linearGradient525)">
      <path
         style="fill:none;fill-opacity:1;stroke:url(#linearGradient26);stroke-width:1.065;stroke-dasharray:none;stroke-opacity:1"
         d="m 67.599588,118.13215 c 0,0 -41.577381,2.47138 -52.771291,-30.092769"
         id="path2" />
      <path
         style="fill:none;fill-opacity:1;stroke:url(#linearGradient27);stroke-width:1.065;stroke-dasharray:none;stroke-opacity:1"
         d="m 14.973672,87.74863 c 0,0 -2.471383,-11.339285 -1.59913,-19.625686"
         id="path3" />
      <path
         style="fill:none;fill-opacity:1;stroke:url(#linearGradient28);stroke-width:1.065;stroke-dasharray:none;stroke-opacity:1"
         d="M 67.45421,117.55064 45.647893,102.86769"
         id="path4" />
      <path
         style="fill:none;fill-opacity:1;stroke:url(#linearGradient29);stroke-width:1.065;stroke-dasharray:none;stroke-opacity:1"
         d="m 30.528847,107.81049 c 0,0 4.215887,-0.43613 15.409796,-5.5243"
         id="path5" />
      <path
         style="fill:none;fill-opacity:1;stroke:url(#linearGradient30);stroke-width:1.065;stroke-dasharray:none;stroke-opacity:1"
         d="m 50.881409,77.717723 c 0,0 9.740156,13.083791 16.718179,40.559797"
         id="path6" />
      <path
         style="fill:none;fill-opacity:1;stroke:url(#linearGradient31);stroke-width:1.065;stroke-dasharray:none;stroke-opacity:1"
         d="m 14.973672,88.184756 c 0,0 16.282052,11.920784 30.674221,14.101434"
         id="path7" />
      <path
         style="fill:none;fill-opacity:1;stroke:url(#linearGradient32);stroke-width:1.065;stroke-dasharray:none;stroke-opacity:1"
         d="m 34.308608,64.633932 c 0,0 1.453755,-6.97802 5.815017,-14.101419"
         id="path8" />
      <path
         style="fill:none;fill-opacity:1;stroke:url(#linearGradient33);stroke-width:1.065;stroke-dasharray:none;stroke-opacity:1"
         d="m 50.736034,77.426972 c 0,0 -5.524267,-5.233516 -16.572802,-12.938416"
         id="path9" />
      <path
         style="fill:none;fill-opacity:1;stroke:url(#linearGradient34);stroke-width:1.065;stroke-dasharray:none;stroke-opacity:1"
         d="M 39.97825,50.532513 53.207417,65.360811"
         id="path10" />
      <path
         style="fill:none;fill-opacity:1;stroke:url(#linearGradient35);stroke-width:1.065;stroke-dasharray:none;stroke-opacity:1"
         d="m 67.744964,82.369738 c 0,0 -8.867905,-11.048534 -14.828298,-17.590431"
         id="path11" />
      <path
         style="fill:none;fill-opacity:1;stroke:url(#linearGradient36);stroke-width:1.065;stroke-dasharray:none;stroke-opacity:1"
         d="M 67.45421,118.13215 67.744964,82.078988"
         id="path12" />
      <path
         style="fill:none;fill-opacity:1;stroke:url(#linearGradient37);stroke-width:1.065;stroke-dasharray:none;stroke-opacity:1"
         d="m 67.599588,62.453302 0.145376,19.771061"
         id="path13" />
      <path
         style="fill:none;fill-opacity:1;stroke:url(#linearGradient38);stroke-width:1.065;stroke-dasharray:none;stroke-opacity:1"
         d="m 58.150182,51.550141 c 0,0 3.634386,3.779763 9.594782,11.630038"
         id="path14" />
      <path
         style="fill:none;fill-opacity:1;stroke:url(#linearGradient39);stroke-width:1.065;stroke-dasharray:none;stroke-opacity:1"
         d="m 67.599588,37.448722 c 0,0 -5.088141,6.832648 -9.594781,14.392172"
         id="path15" />
      <path
         style="fill:none;fill-opacity:1;stroke:url(#linearGradient40);stroke-width:1.065;stroke-dasharray:none;stroke-opacity:1"
         d="m 53.062041,65.07006 c 0,0 1.599131,-7.123398 5.088141,-13.665295"
         id="path16" />
      <path
         style="fill:none;fill-opacity:1;stroke:url(#linearGradient41);stroke-width:1.065;stroke-dasharray:none;stroke-opacity:1"
         d="m 50.736034,77.281597 2.471383,-12.50229"
         id="path17" />
      <path
         style="fill:none;fill-opacity:1;stroke:url(#linearGradient42);stroke-width:1.065;stroke-dasharray:none;stroke-opacity:1"
         d="m 45.357142,102.43156 c 0,0 3.634388,-7.850283 5.233516,-24.568462"
         id="path18" />
      <path
         style="fill:none;fill-opacity:1;stroke:url(#linearGradient43);stroke-width:1.065;stroke-dasharray:none;stroke-opacity:1"
         d="m 34.308608,83.096615 c 0,0 5.088141,9.594781 11.630035,19.916455"
         id="path19" />
      <path
         style="fill:none;fill-opacity:1;stroke:url(#linearGradient44);stroke-width:1.065;stroke-dasharray:none;stroke-opacity:1"
         d="m 14.973672,87.894005 c 0,0 12.066162,-4.215886 19.480311,-4.361262"
         id="path20" />
      <path
         style="fill:none;fill-opacity:1;stroke:url(#linearGradient45);stroke-width:1.065;stroke-dasharray:none;stroke-opacity:1"
         d="M 50.881409,77.863098 34.599358,83.096615"
         id="path21" />
      <path
         style="fill:none;fill-opacity:1;stroke:url(#linearGradient46);stroke-width:1.065;stroke-dasharray:none;stroke-opacity:1"
         d="m 34.308608,64.633932 c 0,0 -1.163003,9.30403 -0.145376,18.171932"
         id="path22" />
      <path
         style="fill:none;fill-opacity:1;stroke:url(#linearGradient47);stroke-width:1.065;stroke-dasharray:none;stroke-opacity:1"
         d="m 13.374542,68.55907 c 0,0 13.374542,7.7049 21.224816,14.68292"
         id="path23" />
      <path
         style="fill:none;fill-opacity:1;stroke:url(#linearGradient48);stroke-width:1.065;stroke-dasharray:none;stroke-opacity:1"
         d="m 67.942287,118.20887 c 0,0 41.577383,2.47138 52.771293,-30.092767"
         id="path2-9" />
      <path
         style="fill:none;fill-opacity:1;stroke:url(#linearGradient49);stroke-width:1.065;stroke-dasharray:none;stroke-opacity:1"
         d="m 120.5682,87.825352 c 0,0 2.47139,-11.339285 1.59913,-19.625686"
         id="path3-5" />
      <path
         style="fill:none;fill-opacity:1;stroke:url(#linearGradient50);stroke-width:1.065;stroke-dasharray:none;stroke-opacity:1"
         d="M 68.087657,117.62736 89.893979,102.94442"
         id="path4-0" />
      <path
         style="fill:none;fill-opacity:1;stroke:url(#linearGradient51);stroke-width:1.065;stroke-dasharray:none;stroke-opacity:1"
         d="m 105.01303,107.8872 c 0,0 -4.21589,-0.43612 -15.409801,-5.52429"
         id="path5-4" />
      <path
         style="fill:none;fill-opacity:1;stroke:url(#linearGradient52);stroke-width:1.065;stroke-dasharray:none;stroke-opacity:1"
         d="m 84.660467,77.794445 c 0,0 -9.74016,13.083791 -16.71818,40.559795"
         id="path6-8" />
      <path
         style="fill:none;fill-opacity:1;stroke:url(#linearGradient53);stroke-width:1.065;stroke-dasharray:none;stroke-opacity:1"
         d="m 120.5682,88.261478 c 0,0 -16.28205,11.920792 -30.674221,14.101432"
         id="path7-7" />
      <path
         style="fill:none;fill-opacity:1;stroke:url(#linearGradient54);stroke-width:1.065;stroke-dasharray:none;stroke-opacity:1"
         d="m 101.23326,64.710654 c 0,0 -1.453751,-6.97802 -5.815013,-14.101419"
         id="path8-1" />
      <path
         style="fill:none;fill-opacity:1;stroke:url(#linearGradient55);stroke-width:1.065;stroke-dasharray:none;stroke-opacity:1"
         d="m 84.805837,77.503694 c 0,0 5.524268,-5.233516 16.572803,-12.938416"
         id="path9-7" />
      <path
         style="fill:none;fill-opacity:1;stroke:url(#linearGradient56);stroke-width:1.065;stroke-dasharray:none;stroke-opacity:1"
         d="M 95.563622,50.609235 82.334457,65.437533"
         id="path10-2" />
      <path
         style="fill:none;fill-opacity:1;stroke:url(#linearGradient57);stroke-width:1.065;stroke-dasharray:none;stroke-opacity:1"
         d="m 67.796907,82.44646 c 0,0 8.86791,-11.048534 14.8283,-17.590431"
         id="path11-7" />
      <path
         style="fill:none;fill-opacity:1;stroke:url(#linearGradient58);stroke-width:1.065;stroke-dasharray:none;stroke-opacity:1"
         d="m 77.391687,51.626863 c 0,0 -3.63438,3.779763 -9.59478,11.630038"
         id="path14-2" />
      <path
         style="fill:none;fill-opacity:1;stroke:url(#linearGradient59);stroke-width:1.065;stroke-dasharray:none;stroke-opacity:1"
         d="m 67.942287,37.525444 c 0,0 5.08814,6.832648 9.59478,14.392172"
         id="path15-2" />
      <path
         style="fill:none;fill-opacity:1;stroke:url(#linearGradient60);stroke-width:1.065;stroke-dasharray:none;stroke-opacity:1"
         d="m 82.479827,65.146782 c 0,0 -1.59913,-7.123398 -5.08814,-13.665295"
         id="path16-6" />
      <path
         style="fill:none;fill-opacity:1;stroke:url(#linearGradient61);stroke-width:1.065;stroke-dasharray:none;stroke-opacity:1"
         d="m 84.805837,77.358319 -2.47138,-12.50229"
         id="path17-1" />
      <path
         style="fill:none;fill-opacity:1;stroke:url(#linearGradient62);stroke-width:1.065;stroke-dasharray:none;stroke-opacity:1"
         d="m 90.18473,102.50828 c 0,0 -3.634393,-7.850281 -5.233513,-24.56846"
         id="path18-0" />
      <path
         style="fill:none;fill-opacity:1;stroke:url(#linearGradient63);stroke-width:1.065;stroke-dasharray:none;stroke-opacity:1"
         d="m 101.23326,83.173337 c 0,0 -5.088137,9.594781 -11.630031,19.916453"
         id="path19-6" />
      <path
         style="fill:none;fill-opacity:1;stroke:url(#linearGradient64);stroke-width:1.065;stroke-dasharray:none;stroke-opacity:1"
         d="m 120.5682,87.970727 c 0,0 -12.06616,-4.215886 -19.48031,-4.361262"
         id="path20-1" />
      <path
         style="fill:none;fill-opacity:1;stroke:url(#linearGradient65);stroke-width:1.065;stroke-dasharray:none;stroke-opacity:1"
         d="m 84.660467,77.93982 16.282043,5.233517"
         id="path21-5" />
      <path
         style="fill:none;fill-opacity:1;stroke:url(#linearGradient66);stroke-width:1.065;stroke-dasharray:none;stroke-opacity:1"
         d="m 101.23326,64.710654 c 0,0 1.16301,9.30403 0.14538,18.171932"
         id="path22-9" />
      <path
         style="fill:none;fill-opacity:1;stroke:url(#linearGradient67);stroke-width:1.065;stroke-dasharray:none;stroke-opacity:1"
         d="m 122.16733,68.635792 c 0,0 -13.37454,7.7049 -21.22482,14.68292"
         id="path23-4" />
    </g>
  </g>
  <path
     d="m 114.41015,435.87854 -30.335996,-66.176 v 66.176 h -17.92 v -89.6 h 27.392 l 30.335996,66.176 v -66.176 h 17.92 v 89.6 z m 68.36807,-28.544 q 0.64,6.272 5.632,9.984 5.12,3.712 12.416,3.712 6.528,0 11.008,-2.176 4.48,-2.304 4.48,-7.168 0,-3.456 -2.816,-5.504 -2.816,-2.048 -7.552,-3.328 -4.608,-1.28 -10.112,-2.56 -5.504,-1.28 -11.136,-3.072 -5.504,-1.92 -10.24,-5.12 -4.608,-3.2 -7.424,-8.32 -2.816,-5.248 -2.816,-13.184 0,-7.68 4.48,-13.568 4.608,-6.016 12.544,-9.344 8.064,-3.456 18.304,-3.456 9.984,0 17.792,3.968 7.808,3.968 12.288,10.88 4.608,6.912 4.608,15.616 h -19.456 q -0.512,-6.4 -4.48,-9.984 -3.84,-3.584 -11.392,-3.584 -7.424,0 -11.392,2.688 -3.968,2.688 -3.968,6.784 0,3.84 2.816,6.016 2.816,2.176 7.424,3.584 4.736,1.408 10.24,2.688 5.632,1.152 11.136,2.944 5.504,1.792 10.112,4.864 4.736,3.072 7.552,8.192 2.816,4.992 2.816,12.8 0,12.416 -9.344,19.328 -9.344,6.912 -26.24,6.912 -10.368,0 -18.56,-3.968 -8.192,-3.968 -13.056,-10.88 -4.864,-6.912 -5.248,-15.744 z m 89.87201,28.544 -23.168,-89.6 h 18.304 l 17.408,71.04 17.28,-71.04 h 20.224 l 17.408,71.04 17.28,-71.04 h 18.304 l -23.168,89.6 h -24.96 l -14.976,-57.856 -14.976,57.856 z"
     id="text2"
     style="font-weight:bold;font-size:128px;font-family:'Stack Sans Notch';-inkscape-font-specification:'Stack Sans Notch, Bold';letter-spacing:10;text-anchor:middle;fill:#f8fafc;fill-opacity:1"
     aria-label="NSW" />
  <path
     d="m 103.17082,472.16902 h -0.21693 l -3.687762,7.37553 -9.834037,17.86035 -9.61711,-17.78804 -3.832382,-7.954 h -0.216927 v 33.62373 H 65.425471 v -50.47175 h 11.641764 l 12.364856,23.64508 h 0.144618 l 12.220241,-23.64508 h 11.71407 v 50.47175 h -10.3402 z m 60.62602,33.11757 v -50.47175 h 34.34682 v 9.76173 h -23.35584 v 10.3402 h 20.02962 v 9.68942 h -20.02962 v 10.91867 h 23.35584 v 9.76173 z m 99.38369,0.86771 q -6.65243,0 -11.28021,-2.24158 -4.62779,-2.31389 -7.8817,-5.92935 l 7.23091,-7.30322 q 5.13395,5.78473 12.6541,5.78473 4.04931,0 6.00165,-1.66311 1.95235,-1.66311 1.95235,-4.41085 0,-2.09697 -1.15695,-3.47084 -1.15694,-1.44618 -4.70009,-1.95235 l -4.98933,-0.65078 q -8.02631,-1.01233 -11.78638,-4.84471 -3.68777,-3.83238 -3.68777,-10.19558 0,-3.39853 1.30157,-6.21858 1.30156,-2.82006 3.68776,-4.84471 2.45851,-2.02466 5.92935,-3.10929 3.54314,-1.15695 8.02631,-1.15695 5.71242,0 10.05096,1.80773 4.33855,1.80773 7.44784,5.27856 l -7.30322,7.37553 q -1.80773,-2.09696 -4.41085,-3.39853 -2.53082,-1.37387 -6.43551,-1.37387 -3.68777,0 -5.49549,1.30156 -1.80773,1.30157 -1.80773,3.61546 0,2.60313 1.37387,3.76007 1.44618,1.15695 4.62778,1.66311 l 4.98933,0.7954 q 7.80938,1.22926 11.56946,4.84471 3.76007,3.54315 3.76007,10.12327 0,3.61546 -1.30156,6.65244 -1.30157,3.03698 -3.83239,5.20626 -2.45851,2.16927 -6.14627,3.39852 -3.68776,1.15695 -8.38786,1.15695 z M 361.335,484.60619 h -19.23422 v 20.6804 H 331.1098 v -50.47175 h 10.99098 v 20.10193 H 361.335 v -20.10193 h 10.99098 v 50.47175 H 361.335 Z"
     id="text3"
     style="font-weight:bold;font-size:72.3091px;font-family:'IBM Plex Sans';-inkscape-font-specification:'IBM Plex Sans, Bold';letter-spacing:39.1502;text-anchor:middle;fill:url(#meshTextGradient);stroke-width:1.12983"
     aria-label="MESH" />
  <metadata
     id="metadata67">
    <rdf:RDF>
      <cc:Work
         rdf:about="">
        <dc:title>NSW Mesh primary logo</dc:title>
      </cc:Work>
    </rdf:RDF>
  </metadata>
</svg>
